<svg width="24" height="24" viewBox="0 0 24 24" fill="none" xmlns="http://www.w3.org/2000/svg">
<path d="M23.2505 23.52H5.25047C5.10122 23.52 4.98047 23.3992 4.98047 23.25V18.0157C2.38247 17.25 0.480469 14.8432 0.480469 12C0.480469 9.15673 2.38247 6.74998 4.98047 5.98423V0.74998C4.98047 0.60073 5.10122 0.47998 5.25047 0.47998H18.7505C18.8225 0.47998 18.8915 0.50848 18.9417 0.55873L23.4417 5.05873C23.492 5.10973 23.5205 5.17798 23.5205 5.24998V23.25C23.5205 23.3992 23.3997 23.52 23.2505 23.52ZM5.52047 22.98H22.9805V5.51998H18.7505C18.6012 5.51998 18.4805 5.39923 18.4805 5.24998V1.01998H5.52047V5.85073C5.91797 5.77198 6.32972 5.72998 6.75047 5.72998C10.208 5.72998 13.0205 8.54248 13.0205 12C13.0205 15.4567 10.208 18.27 6.75047 18.27C6.32972 18.27 5.91797 18.228 5.52047 18.1485V22.98ZM6.75047 6.26998C3.59072 6.26998 1.02047 8.84023 1.02047 12C1.02047 15.1597 3.59072 17.73 6.75047 17.73C9.91022 17.73 12.4805 15.1597 12.4805 12C12.4805 8.84023 9.91022 6.26998 6.75047 6.26998ZM19.0205 4.97998H22.5987L19.0205 1.40173V4.97998ZM7.02047 15H6.48047V12.27H3.75047V11.73H6.48047V8.99998H7.02047V11.73H9.75047V12.27H7.02047V15Z" fill="#0055FF"/>
</svg>
