<svg width="48" height="48" viewBox="0 0 48 48" fill="none" xmlns="http://www.w3.org/2000/svg">
<path d="M8.61896 31.1175L9.73646 30L8.61896 28.8825L9.38246 28.1175L10.5 29.2365L11.619 28.1175L12.3825 28.8825L11.2635 30L12.381 31.1175L11.6175 31.8825L10.5 30.7635L9.38096 31.8825L8.61896 31.1175ZM40.1175 22.119L39 23.2365L37.8825 22.119L37.1175 22.8825L38.2365 24L37.1175 25.119L37.8825 25.8825L39 24.765L40.1175 25.8825L40.8825 25.119L39.7635 24L40.8825 22.881L40.1175 22.119ZM47.04 24C47.04 36.705 36.7035 47.04 24 47.04C11.2965 47.04 0.959961 36.705 0.959961 24C0.959961 11.295 11.295 0.960022 24 0.960022C29.973 0.960022 35.5995 3.21752 39.906 7.33052L41.619 5.61752L42.384 6.38102L25.7655 22.9965C25.9365 23.295 26.04 23.634 26.04 24C26.04 25.125 25.125 26.04 24 26.04C22.875 26.04 21.96 25.125 21.96 24C21.96 22.875 22.875 21.96 24 21.96C24.366 21.96 24.705 22.065 25.002 22.2345L28.524 18.711C26.604 17.064 23.826 16.626 21.48 17.532C21.516 17.6835 21.54 17.838 21.54 18C21.54 19.125 20.625 20.04 19.5 20.04C19.137 20.04 18.8025 19.9365 18.507 19.77C17.5725 20.9835 17.04 22.458 17.04 24C17.04 27.8385 20.163 30.96 24 30.96C27.837 30.96 30.96 27.8385 30.96 24H32.0415C32.0415 28.4325 28.434 32.04 24.0015 32.04C19.5675 32.04 15.9615 28.4325 15.9615 24C15.9615 22.173 16.605 20.424 17.736 19.0035C17.565 18.7065 17.46 18.3675 17.46 18C17.46 16.875 18.375 15.96 19.5 15.96C20.0715 15.96 20.5875 16.1985 20.958 16.578C23.724 15.453 27.0315 15.969 29.2905 17.946L33.8355 13.401C31.1535 10.9065 27.6795 9.54002 24 9.54002C16.0275 9.54002 9.53996 16.0275 9.53996 24C9.53996 24.9825 9.63896 25.9635 9.83396 26.9145L8.77646 27.132C8.56646 26.1075 8.45996 25.0545 8.45996 24C8.45996 15.432 15.4305 8.46002 24 8.46002C27.969 8.46002 31.713 9.93902 34.6005 12.636L39.141 8.09552C35.04 4.18652 29.685 2.04002 24 2.04002C11.8905 2.04002 2.03996 11.8905 2.03996 24C2.03996 36.108 11.8905 45.96 24 45.96C36.108 45.96 45.96 36.1095 45.96 24H47.04ZM20.46 18C20.46 17.4705 20.0295 17.04 19.5 17.04C18.9705 17.04 18.54 17.4705 18.54 18C18.54 18.5295 18.9705 18.96 19.5 18.96C20.0295 18.96 20.46 18.5295 20.46 18ZM24.96 24C24.96 23.4705 24.5295 23.04 24 23.04C23.4705 23.04 23.04 23.4705 23.04 24C23.04 24.5295 23.4705 24.96 24 24.96C24.5295 24.96 24.96 24.5295 24.96 24ZM24 39.54C31.3605 39.54 37.767 34.311 39.228 27.1065L38.1705 26.892C36.81 33.594 30.849 38.46 24 38.46C19.4085 38.46 15.192 36.3525 12.432 32.6775L11.568 33.3255C14.5335 37.275 19.065 39.54 24 39.54Z" fill="#0055FF"/>
</svg>
