<svg width="18" height="24" viewBox="0 0 18 24" fill="none" xmlns="http://www.w3.org/2000/svg">
<path d="M17.2505 23.52H3.00047C2.85122 23.52 2.73047 23.3992 2.73047 23.25V22.02H1.50047C1.35122 22.02 1.23047 21.8992 1.23047 21.75V20.52H0.750469C0.601219 20.52 0.480469 20.3992 0.480469 20.25V2.24998C0.480469 2.10073 0.601219 1.97998 0.750469 1.97998H4.23047V1.49998C4.23047 1.35073 4.35122 1.22998 4.50047 1.22998H5.73047V0.74998C5.73047 0.60073 5.85122 0.47998 6.00047 0.47998H9.00047C9.14972 0.47998 9.27047 0.60073 9.27047 0.74998V1.22998H10.5005C10.6497 1.22998 10.7705 1.35073 10.7705 1.49998V1.97998H14.2505C14.3997 1.97998 14.5205 2.10073 14.5205 2.24998V3.47998H15.7505C15.8997 3.47998 16.0205 3.60073 16.0205 3.74998V4.97998H17.2505C17.3997 4.97998 17.5205 5.10073 17.5205 5.24998V23.25C17.5205 23.3992 17.3997 23.52 17.2505 23.52ZM3.27047 22.98H16.9805V5.51998H16.0205V21.75C16.0205 21.8992 15.8997 22.02 15.7505 22.02H3.27047V22.98ZM1.77047 21.48H15.4805V4.01998H14.5205V20.25C14.5205 20.3992 14.3997 20.52 14.2505 20.52H1.77047V21.48ZM1.02047 19.98H13.9805V2.51998H10.7705V2.99998C10.7705 3.14923 10.6497 3.26998 10.5005 3.26998H4.50047C4.35122 3.26998 4.23047 3.14923 4.23047 2.99998V2.51998H1.02047V19.98ZM4.77047 2.72998H10.2305V1.76998H9.00047C8.85122 1.76998 8.73047 1.64923 8.73047 1.49998V1.01998H6.27047V1.49998C6.27047 1.64923 6.14972 1.76998 6.00047 1.76998H4.77047V2.72998ZM12.3755 16.02H2.62547V15.48H12.3755V16.02ZM12.3755 13.02H2.62547V12.48H12.3755V13.02ZM12.3755 10.02H2.62547V9.47998H12.3755V10.02ZM12.3755 7.01998H2.62547V6.47998H12.3755V7.01998Z" fill="#0055FF"/>
</svg>
