<svg width="22" height="20" viewBox="0 0 22 20" fill="none" xmlns="http://www.w3.org/2000/svg">
<path d="M21.248 20H12.8496C12.7103 20 12.5977 19.8952 12.5977 19.7656V18.6986H4.45117C4.3119 18.6986 4.19922 18.5937 4.19922 18.4642V14.7923H0.251953C0.112679 14.7923 0 14.6875 0 14.5579V5.44336C0 5.3138 0.112679 5.20898 0.251953 5.20898H4.20272V1.53711C4.20272 1.40755 4.3154 1.30273 4.45467 1.30273H12.5977V0.234375C12.5977 0.104818 12.7103 0 12.8496 0H21.248C21.3873 0 21.5 0.104818 21.5 0.234375V2.83854C21.5 2.9681 21.3873 3.07292 21.248 3.07292H12.8496C12.7103 3.07292 12.5977 2.9681 12.5977 2.83854V1.77148H4.70592V5.20898H8.65039C8.78966 5.20898 8.90234 5.3138 8.90234 5.44336V9.76693H12.5977V8.69857C12.5977 8.56901 12.7103 8.46419 12.8496 8.46419H21.248C21.3873 8.46419 21.5 8.56901 21.5 8.69857V11.3027C21.5 11.4323 21.3873 11.5371 21.248 11.5371H12.8496C12.7103 11.5371 12.5977 11.4323 12.5977 11.3027V10.2357H8.90234V14.5579C8.90234 14.6875 8.78966 14.7923 8.65039 14.7923H4.70312V18.2292H12.5977V17.1615C12.5977 17.0319 12.7103 16.9271 12.8496 16.9271H21.248C21.3873 16.9271 21.5 17.0319 21.5 17.1615V19.7656C21.5 19.8952 21.3873 20 21.248 20ZM13.1016 19.5312H20.9961V17.3958H13.1016V19.5312ZM0.503906 14.3236H8.39844V5.67773H0.503906V14.3236ZM13.1016 11.0684H20.9961V8.93359H13.1016V11.0684ZM13.1016 2.60417H20.9961V0.46875H13.1016V2.60417ZM7.25345 12.1882H1.65449V11.7187H7.25345V12.1882ZM7.25345 10.2344H1.65449V9.76562H7.25345V10.2344ZM7.25345 8.2819H1.65449V7.81315H7.25345V8.2819Z" fill="#0055FF"/>
</svg>
