<svg width="62" height="16" viewBox="0 0 62 16" fill="none" xmlns="http://www.w3.org/2000/svg">
<path d="M16.2 8C16.2 3.58172 12.6183 0 8.20001 0V5.33333C9.67277 5.33333 10.8667 6.52724 10.8667 8H16.2Z" fill="#A6A6A6"/>
<path fill-rule="evenodd" clip-rule="evenodd" d="M8.20001 5.33333V0C3.78173 0 0.200012 3.58172 0.200012 8C0.200012 12.4183 3.78173 16 8.20001 16V10.6667C6.72725 10.6667 5.53335 9.47276 5.53335 8C5.53335 6.52724 6.72725 5.33333 8.20001 5.33333Z" fill="#A6A6A6"/>
<circle r="2" transform="matrix(1 0 0 -1 12.8667 12.6667)" fill="#A6A6A6"/>
<path d="M19.6006 11.4V5.44376H23.415V6.29709H20.5648V7.95256H23.1504V8.80589H20.5648V10.5467H23.415V11.4H19.6006ZM26.8946 11.5024C26.1153 11.5024 25.5037 11.2407 25.06 10.7174C24.6162 10.1883 24.3944 9.42314 24.3944 8.42189C24.3944 7.92127 24.4513 7.48038 24.565 7.09922C24.6788 6.71807 24.8438 6.39665 25.06 6.13496C25.2761 5.87327 25.5378 5.677 25.845 5.54616C26.1579 5.40962 26.5078 5.34136 26.8946 5.34136C27.4123 5.34136 27.8447 5.45514 28.1917 5.68269C28.5444 5.91025 28.8203 6.24589 29.0194 6.68962L28.2088 7.13336C28.1064 6.84891 27.9471 6.6242 27.7309 6.45922C27.5204 6.28856 27.2417 6.20322 26.8946 6.20322C26.4338 6.20322 26.0726 6.35967 25.8109 6.67256C25.5492 6.98545 25.4184 7.4178 25.4184 7.96962V8.87416C25.4184 9.42598 25.5492 9.85834 25.8109 10.1712C26.0726 10.4841 26.4338 10.6406 26.8946 10.6406C27.253 10.6406 27.5432 10.5495 27.765 10.3675C27.9926 10.1798 28.1604 9.94082 28.2685 9.65069L29.045 10.12C28.8459 10.5524 28.5672 10.8909 28.2088 11.1355C27.8504 11.3801 27.4123 11.5024 26.8946 11.5024ZM33.7628 11.4L33.2252 9.78722H30.998L30.4774 11.4H29.4961L31.527 5.44376H32.7388L34.7697 11.4H33.7628ZM32.1329 6.33122H32.0902L31.2284 8.95949H32.9862L32.1329 6.33122ZM35.6922 11.4V5.44376H38.2522C38.8041 5.44376 39.2307 5.60589 39.5322 5.93016C39.8337 6.25442 39.9845 6.68962 39.9845 7.23576C39.9845 7.78189 39.8337 8.21709 39.5322 8.54136C39.2307 8.86562 38.8041 9.02776 38.2522 9.02776H36.6565V11.4H35.6922ZM36.6565 8.18296H38.1925C38.4371 8.18296 38.6277 8.12038 38.7642 7.99522C38.9008 7.86438 38.969 7.67949 38.969 7.44056V7.03096C38.969 6.79202 38.9008 6.60998 38.7642 6.48482C38.6277 6.35398 38.4371 6.28856 38.1925 6.28856H36.6565V8.18296ZM43.2524 6.29709V11.4H42.2881V6.29709H40.5132V5.44376H45.0273V6.29709H43.2524ZM46.8803 5.44376V9.11309C46.8803 9.6194 46.977 10.0006 47.1704 10.2566C47.3639 10.5126 47.6938 10.6406 48.1603 10.6406C48.6268 10.6406 48.9567 10.5126 49.1502 10.2566C49.3436 10.0006 49.4403 9.6194 49.4403 9.11309V5.44376H50.3875V8.95949C50.3875 9.39754 50.3477 9.77585 50.268 10.0944C50.1884 10.413 50.0604 10.6775 49.884 10.888C49.7077 11.0928 49.4773 11.2464 49.1928 11.3488C48.9141 11.4512 48.5699 11.5024 48.1603 11.5024C47.7507 11.5024 47.4037 11.4512 47.1192 11.3488C46.8405 11.2464 46.6129 11.0928 46.4366 10.888C46.2602 10.6775 46.1322 10.413 46.0526 10.0944C45.9729 9.77585 45.9331 9.39754 45.9331 8.95949V5.44376H46.8803ZM52.7815 11.4H51.8172V5.44376H54.3858C54.9205 5.44376 55.3415 5.60589 55.6487 5.93016C55.9559 6.24874 56.1095 6.68394 56.1095 7.23576C56.1095 7.66242 56.0099 8.01798 55.8108 8.30242C55.6174 8.58118 55.3301 8.77745 54.949 8.89122L56.2375 11.4H55.1623L53.9676 8.99362H52.7815V11.4ZM54.3175 8.18296C54.5621 8.18296 54.7527 8.12038 54.8892 7.99522C55.0258 7.86438 55.094 7.67949 55.094 7.44056V7.03096C55.094 6.79202 55.0258 6.60998 54.8892 6.48482C54.7527 6.35398 54.5621 6.28856 54.3175 6.28856H52.7815V8.18296H54.3175ZM57.4089 11.4V5.44376H61.2233V6.29709H58.3732V7.95256H60.9588V8.80589H58.3732V10.5467H61.2233V11.4H57.4089Z" fill="#A6A6A6"/>
</svg>
