<svg width="21" height="20" viewBox="0 0 21 20" fill="none" xmlns="http://www.w3.org/2000/svg">
<path d="M19.0544 19.7C18.1796 19.7 17.4687 19.0381 17.4687 18.225C17.4687 17.4881 18.0526 16.8756 18.8125 16.7669V14.7H13.9212V16.7669C14.6811 16.8756 15.265 17.4881 15.265 18.225C15.265 19.0387 14.5535 19.7 13.6794 19.7C12.8053 19.7 12.0937 19.0381 12.0937 18.225C12.0937 17.4881 12.6776 16.8756 13.4375 16.7669V14.475C13.4375 14.3506 13.5457 14.25 13.6794 14.25H16.1203V11.575H12.3356C12.2019 11.575 12.0937 11.4744 12.0937 11.35V8.85C12.0937 8.72563 12.2019 8.625 12.3356 8.625H16.125V5.95H4.515V8.625H8.30437C8.43808 8.625 8.54625 8.72563 8.54625 8.85V11.35C8.54625 11.4744 8.43808 11.575 8.30437 11.575H4.515V14.2494H6.96062C7.09433 14.2494 7.2025 14.35 7.2025 14.4744V16.7663C7.96239 16.875 8.54625 17.4875 8.54625 18.2244C8.54625 19.0381 7.83473 19.6994 6.96062 19.6994C6.08651 19.6994 5.375 19.0387 5.375 18.225C5.375 17.4881 5.95886 16.8756 6.71875 16.7669V14.7H1.8275V16.7669C2.58739 16.8756 3.17125 17.4881 3.17125 18.225C3.17125 19.0387 2.45973 19.7 1.58562 19.7C0.711516 19.7 0 19.0387 0 18.225C0 17.4881 0.583859 16.8756 1.34375 16.7669V14.475C1.34375 14.3506 1.45192 14.25 1.58562 14.25H4.03125V11.575H0.241875C0.108172 11.575 0 11.4744 0 11.35V8.85C0 8.72563 0.108172 8.625 0.241875 8.625H4.03125V5.725C4.03125 5.60062 4.13942 5.5 4.27312 5.5H10.0781V3.45H0.241875C0.108172 3.45 0 3.34938 0 3.225V0.725C0 0.600625 0.108172 0.5 0.241875 0.5H20.3981C20.5318 0.5 20.64 0.600625 20.64 0.725V3.225C20.64 3.34938 20.5318 3.45 20.3981 3.45H10.5619V5.5H16.3669C16.5006 5.5 16.6087 5.60062 16.6087 5.725V8.625H20.3981C20.5318 8.625 20.64 8.72563 20.64 8.85V11.35C20.64 11.4744 20.5318 11.575 20.3981 11.575H16.6047V14.2494H19.0544C19.1881 14.2494 19.2962 14.35 19.2962 14.4744V16.7663C20.0561 16.875 20.64 17.4875 20.64 18.2244C20.64 19.0388 19.9292 19.7 19.0544 19.7ZM19.0544 17.2C18.447 17.2 17.9525 17.6594 17.9525 18.225C17.9525 18.7906 18.4463 19.25 19.0544 19.25C19.6624 19.25 20.1562 18.7906 20.1562 18.225C20.1562 17.6594 19.6617 17.2 19.0544 17.2ZM13.6794 17.2C13.072 17.2 12.5775 17.6594 12.5775 18.225C12.5775 18.7906 13.0713 19.25 13.6794 19.25C14.2874 19.25 14.7812 18.7906 14.7812 18.225C14.7812 17.6594 14.2867 17.2 13.6794 17.2ZM6.96062 17.2C6.35325 17.2 5.85875 17.6594 5.85875 18.225C5.85875 18.7906 6.35325 19.25 6.96062 19.25C7.568 19.25 8.0625 18.7906 8.0625 18.225C8.0625 17.6594 7.568 17.2 6.96062 17.2ZM1.58562 17.2C0.97825 17.2 0.48375 17.6594 0.48375 18.225C0.48375 18.7906 0.97825 19.25 1.58562 19.25C2.193 19.25 2.6875 18.79 2.6875 18.225C2.6875 17.66 2.193 17.2 1.58562 17.2ZM16.3803 11.125H20.1562V9.075H12.5775V11.125H16.344C16.3561 11.125 16.3682 11.125 16.3803 11.125ZM4.29127 11.125H8.0625V9.075H0.48375V11.125H4.25498C4.26708 11.125 4.27917 11.125 4.29127 11.125ZM0.48375 3H20.1562V0.95H0.48375V3Z" fill="#0055FF"/>
</svg>
