<svg width="44" height="45" viewBox="0 0 44 45" fill="none" xmlns="http://www.w3.org/2000/svg">
<path d="M4.14396 12.04H12.2215C11.419 15.022 10.96 18.406 10.96 22H12.04C12.04 18.385 12.5035 14.9905 13.3075 12.04H21.46V22H22.54V12.04H30.6925C31.4965 14.9905 31.96 18.385 31.96 22H33.0415C33.0415 18.406 32.5825 15.022 31.7815 12.04H39.8575C41.5105 14.9905 42.4615 18.385 42.4615 22H43.543C43.543 10.123 33.88 0.460022 22.003 0.460022C10.126 0.460022 0.459961 10.123 0.459961 22H1.53996C1.53996 18.385 2.49096 14.9905 4.14396 12.04ZM13.627 10.96C15.3085 5.59602 18.1735 1.96002 21.46 1.59552V10.96H13.627ZM22.54 10.96V1.59552C25.8265 1.96002 28.69 5.59602 30.373 10.96H22.54ZM39.199 10.96H31.462C30.2065 6.88152 28.285 3.68052 25.9855 1.93602C31.519 3.03402 36.244 6.37302 39.199 10.96ZM18.0145 1.93602C15.7165 3.68052 13.7935 6.88152 12.5395 10.96H4.80096C7.75596 6.37302 12.481 3.03402 18.0145 1.93602ZM31.96 26.5V27.31L26.5 25.96H22.3765C21.5185 25.96 20.6905 26.272 20.047 26.8375L19.336 27.46H12.04V26.5C12.04 26.2015 11.7985 25.96 11.5 25.96H0.999961V27.0415H10.96V39.46H0.999961V40.5415H11.5C11.7985 40.5415 12.04 40.3 12.04 40.0015V39.0415H13.471L16.693 43.6045C17.095 44.053 17.653 44.284 18.2155 44.284C18.6235 44.284 19.033 44.1625 19.3885 43.912L20.353 43.234C20.41 43.255 20.455 43.297 20.515 43.3135C20.6905 43.3585 20.8675 43.3825 21.043 43.3825C21.397 43.3825 21.7465 43.2895 22.06 43.1065L23.308 42.3865C23.536 42.4705 23.7715 42.529 24.016 42.529C24.361 42.529 24.712 42.4405 25.033 42.256L26.2825 41.5345C26.5105 41.6185 26.746 41.677 26.9905 41.677C27.3355 41.677 27.688 41.5885 28.009 41.404C28.852 40.9165 29.176 39.919 28.8985 39.04H31.9615V40C31.9615 40.2985 32.203 40.54 32.5015 40.54H43.0015V39.46H33.0415V27.04H43V25.96H32.5C32.2015 25.96 31.96 26.2015 31.96 26.5ZM27.4675 40.4695C27.01 40.7335 26.419 40.576 26.155 40.1185L23.905 36.2215L22.969 36.76L25.324 40.84L24.493 41.3185C24.034 41.587 23.446 41.4265 23.1805 40.969L21.6805 38.371L21.3055 37.7215L20.371 38.26L20.746 38.908L22.246 41.506C22.246 41.5075 22.2475 41.5075 22.249 41.509L22.3525 41.6875L21.52 42.1675C21.301 42.2965 21.043 42.3295 20.7955 42.2635C20.548 42.1975 20.3425 42.04 20.2135 41.821L18.7105 39.2185L17.7745 39.757L19.2745 42.355C19.276 42.3565 19.2775 42.358 19.2775 42.3595L19.4035 42.577L18.7675 43.0255C18.37 43.306 17.8255 43.243 17.5375 42.9295L14.1925 38.1865C14.0905 38.0425 13.927 37.957 13.7515 37.957H12.04V28.54H18.1L15.271 31.015C15.061 31.1965 14.935 31.4605 14.926 31.7365C14.9155 32.014 15.022 32.2855 15.22 32.482C16.498 33.76 18.526 33.871 19.936 32.743L21.4405 31.5385H23.92L27.8185 39.1555C28.081 39.616 27.9235 40.2055 27.4675 40.4695ZM28.4155 37.96L24.73 30.754C24.637 30.574 24.451 30.46 24.25 30.46H21.25C21.127 30.46 21.0085 30.502 20.9125 30.5785L19.2595 31.9015C18.28 32.6845 16.873 32.6095 15.9805 31.8295L20.758 27.649C21.205 27.256 21.7795 27.0415 22.3765 27.0415L26.3695 27.025L31.96 28.423V37.96H28.4155Z" fill="#0055FF"/>
</svg>
