<svg width="30" height="31" viewBox="0 0 30 31" fill="none" xmlns="http://www.w3.org/2000/svg">
<path d="M23.36 31H22.64V23.5C22.64 19.948 20.226 16.896 16.768 16.076C16.618 16.04 16.507 15.913 16.493 15.76C16.478 15.606 16.564 15.46 16.705 15.397C18.222 14.722 19.201 13.216 19.201 11.561C19.201 9.24501 17.317 7.36001 15.001 7.36001C12.685 7.36001 10.8 9.24401 10.8 11.561C10.8 13.216 11.78 14.723 13.296 15.397C13.437 15.46 13.523 15.606 13.508 15.76C13.494 15.913 13.383 16.041 13.233 16.076C9.77501 16.896 7.36101 19.948 7.36101 23.5V31H6.64001V23.5C6.64001 19.908 8.89701 16.782 12.225 15.621C10.899 14.714 10.079 13.2 10.079 11.56C10.079 9.59601 11.236 7.89601 12.905 7.10801C13.101 6.61701 13.2 6.09701 13.2 5.56101C13.2 3.24501 11.316 1.36001 9.00001 1.36001C6.68401 1.36001 4.79901 3.24401 4.79901 5.56101C4.79901 7.21701 5.77901 8.72301 7.29501 9.39701C7.43702 9.46001 7.52101 9.60601 7.50701 9.76001C7.49301 9.91301 7.38202 10.041 7.23202 10.076C3.77402 10.896 1.36001 13.948 1.36001 17.5V25H0.640015V17.5C0.640015 13.908 2.89701 10.782 6.22501 9.62101C4.89901 8.71401 4.08001 7.20001 4.08001 5.56101C4.08001 2.84801 6.28701 0.641006 9.00001 0.641006C11.713 0.641006 13.92 2.84801 13.92 5.56101C13.92 5.98301 13.868 6.39701 13.763 6.79801C14.554 6.59301 15.446 6.59301 16.236 6.79801C16.132 6.39701 16.079 5.98301 16.079 5.56101C16.079 2.84801 18.287 0.641006 21 0.641006C23.713 0.641006 25.921 2.84801 25.921 5.56101C25.921 7.20101 25.101 8.71501 23.775 9.62201C27.104 10.783 29.361 13.909 29.361 17.501V25H28.64V17.5C28.64 13.948 26.226 10.896 22.768 10.076C22.618 10.04 22.507 9.91301 22.493 9.76001C22.478 9.60601 22.564 9.46001 22.705 9.39701C24.221 8.72201 25.2 7.21601 25.2 5.56101C25.2 3.24501 23.316 1.36001 21 1.36001C18.684 1.36001 16.8 3.24401 16.8 5.56101C16.8 6.09701 16.899 6.61701 17.095 7.10901C18.764 7.89801 19.921 9.59701 19.921 11.561C19.921 13.201 19.101 14.715 17.775 15.622C21.104 16.783 23.361 19.909 23.361 23.501L23.36 31Z" fill="#0055FF"/>
</svg>
