<svg width="80" height="24" viewBox="0 0 80 24" fill="none" xmlns="http://www.w3.org/2000/svg">
<path fill-rule="evenodd" clip-rule="evenodd" d="M68.5873 0.142635L66.4895 1.19158L68.5873 2.24053C68.9677 2.43071 69.4154 2.43071 69.7958 2.24053L71.8937 1.19158L69.7958 0.142634C69.4154 -0.0475449 68.9677 -0.0475447 68.5873 0.142635ZM61.0852 3.89369L63.1831 2.84474C63.5635 2.65456 64.0112 2.65456 64.3916 2.84474L69.1916 5.24474L73.9916 2.84474C74.3719 2.65456 74.8196 2.65456 75.2 2.84474L77.2979 3.89369L69.7958 7.64474C69.4154 7.83492 68.9677 7.83492 68.5873 7.64474L61.0852 3.89369ZM58.3831 5.24474L69.1916 10.649L80 5.24474V7.11185C80 7.62359 79.7108 8.09141 79.2531 8.32027L70.5426 12.6755V20.7818L80 16.0532V17.9203C80 18.432 79.7108 18.8998 79.2531 19.1287L69.7958 23.8574C69.4154 24.0475 68.9677 24.0475 68.5873 23.8574L59.13 19.1287C58.6723 18.8998 58.3831 18.432 58.3831 17.9203V16.0532L67.8405 20.7818V18.0797L59.13 13.7245C58.6723 13.4956 58.3831 13.0278 58.3831 12.5161V10.6489L67.8405 15.3776V12.6755L59.13 8.32027C58.6723 8.09141 58.3831 7.62359 58.3831 7.11185V5.24474ZM45.1027 5.92026H43.3402V17.8857H45.1027V12.2425C45.1027 12.0054 45.1512 11.7952 45.2482 11.6119C45.356 11.4287 45.4962 11.2778 45.6686 11.1592C45.8411 11.0406 46.0352 10.9544 46.2507 10.9005C46.4771 10.8358 46.7035 10.8035 46.9299 10.8035C47.9863 10.8035 48.5145 11.4556 48.5145 12.76V17.8857H50.277V12.5498C50.277 11.5041 50.0344 10.701 49.5493 10.1405C49.075 9.56918 48.4067 9.28352 47.5443 9.28352C46.8975 9.28352 46.3855 9.43444 46.0082 9.73627C45.6417 10.0381 45.3668 10.4154 45.1836 10.8681H45.1027V5.92026ZM11.0694 16.5921C11.9102 17.5839 13.0691 18.0797 14.5459 18.0797C15.5268 18.0797 16.3569 17.848 17.036 17.3844C17.7151 16.9209 18.2433 16.2795 18.6206 15.4603L17.1492 14.571C16.9444 15.1207 16.6264 15.5735 16.1952 15.9292C15.7748 16.2741 15.225 16.4466 14.5459 16.4466C13.6727 16.4466 12.9882 16.1502 12.4923 15.5573C11.9965 14.9644 11.7486 14.1452 11.7486 13.0995V11.3856C11.7486 10.3399 11.9965 9.52068 12.4923 8.92779C12.9882 8.33491 13.6727 8.03847 14.5459 8.03847C15.2034 8.03847 15.7316 8.20016 16.1305 8.52355C16.5401 8.83617 16.8419 9.26196 17.036 9.80095L18.5721 8.96013C18.1948 8.11932 17.672 7.48332 17.0036 7.05213C16.3461 6.62094 15.5268 6.40535 14.5459 6.40535C13.8129 6.40535 13.1499 6.53471 12.557 6.79342C11.9749 7.04135 11.4791 7.41325 11.0694 7.90911C10.6598 8.40498 10.3472 9.01403 10.1316 9.73627C9.91601 10.4585 9.80821 11.2939 9.80821 12.2425C9.80821 14.1398 10.2286 15.5896 11.0694 16.5921ZM0.724609 6.59938V17.8857H7.95238V16.2688H2.55176V12.9702H7.45113V11.3532H2.55176V8.21633H7.95238V6.59938H0.724609ZM26.5888 17.8857C26.1252 17.8857 25.7695 17.7563 25.5216 17.4976C25.2736 17.2281 25.1227 16.8886 25.0688 16.479H24.988C24.8263 17.0072 24.5298 17.406 24.0986 17.6755C23.6675 17.945 23.1446 18.0797 22.5302 18.0797C21.6571 18.0797 20.9833 17.8534 20.509 17.4006C20.0455 16.9479 19.8137 16.3388 19.8137 15.5735C19.8137 14.7326 20.1156 14.102 20.7192 13.6816C21.3337 13.2612 22.2284 13.051 23.4034 13.051H24.9233V12.3396C24.9233 11.8221 24.7832 11.4233 24.5029 11.143C24.2226 10.8627 23.786 10.7226 23.1932 10.7226C22.6973 10.7226 22.2931 10.8304 21.9804 11.046C21.6678 11.2616 21.4037 11.5365 21.1881 11.8706L20.1371 10.9166C20.4174 10.4423 20.8108 10.0543 21.3175 9.75244C21.8241 9.43983 22.4871 9.28352 23.3063 9.28352C24.3951 9.28352 25.2305 9.53685 25.8126 10.0435C26.3947 10.5501 26.6858 11.2778 26.6858 12.2264V16.4466H27.5751V17.8857H26.5888ZM23.0315 16.7377C23.5812 16.7377 24.034 16.6191 24.3897 16.3819C24.7454 16.134 24.9233 15.8052 24.9233 15.3956V14.1829H23.4357C22.2176 14.1829 21.6085 14.5602 21.6085 15.3147V15.6058C21.6085 15.9831 21.7325 16.2688 21.9804 16.4628C22.2392 16.646 22.5895 16.7377 23.0315 16.7377ZM30.1929 17.4168C30.5055 17.7294 30.969 17.8857 31.5835 17.8857H33.1196V16.4466H31.4865V10.9166H33.2489V9.47756H31.4865V7.18149H29.9019V8.65291C29.9019 8.94396 29.8426 9.15417 29.724 9.28352C29.6162 9.41288 29.4168 9.47756 29.1257 9.47756H28.4143V10.9166H29.724V16.0585C29.724 16.6406 29.8803 17.0934 30.1929 17.4168ZM38.3476 18.0797C37.744 18.0797 37.205 17.9773 36.7307 17.7725C36.2564 17.5677 35.8575 17.2766 35.5342 16.8994C35.2108 16.5113 34.9628 16.0478 34.7904 15.5088C34.6179 14.959 34.5316 14.35 34.5316 13.6816C34.5316 13.0133 34.6179 12.4096 34.7904 11.8706C34.9628 11.3209 35.2108 10.8574 35.5342 10.4801C35.8575 10.092 36.2564 9.79556 36.7307 9.59074C37.205 9.38593 37.744 9.28352 38.3476 9.28352C39.1885 9.28352 39.8784 9.47217 40.4173 9.84946C40.9563 10.2267 41.3498 10.728 41.5977 11.3532L40.1425 12.0323C40.0239 11.6443 39.8137 11.3371 39.5119 11.1107C39.2208 10.8735 38.8327 10.7549 38.3476 10.7549C37.7009 10.7549 37.2104 10.9598 36.8762 11.3694C36.5528 11.7682 36.3911 12.2911 36.3911 12.9378V14.4416C36.3911 15.0884 36.5528 15.6166 36.8762 16.0262C37.2104 16.4251 37.7009 16.6245 38.3476 16.6245C38.8651 16.6245 39.2747 16.5005 39.5765 16.2526C39.8891 15.9939 40.1371 15.6543 40.3203 15.2339L41.6624 15.9454C41.3821 16.6353 40.9617 17.1635 40.4012 17.53C39.8406 17.8965 39.1561 18.0797 38.3476 18.0797Z" fill="url(#paint0_linear)"/>
<defs>
<linearGradient id="paint0_linear" x1="0.724609" y1="0" x2="12.4423" y2="42.612" gradientUnits="userSpaceOnUse">
<stop stop-color="#1FFFFF"/>
<stop offset="1" stop-color="#7A00F5"/>
</linearGradient>
</defs>
</svg>
