<svg width="42" height="47" viewBox="0 0 42 47" fill="none" xmlns="http://www.w3.org/2000/svg">
<path d="M16.2902 12.75C16.2902 11.2125 15.0392 9.95996 13.5002 9.95996C11.9612 9.95996 10.7102 11.2125 10.7102 12.75C10.7102 14.2875 11.9612 15.54 13.5002 15.54C14.1197 15.54 14.6867 15.33 15.1502 14.988L20.4602 19.743V28.5H21.5402V19.2585L15.8777 14.19C16.1342 13.767 16.2902 13.278 16.2902 12.75ZM13.5002 14.46C12.5582 14.46 11.7902 13.692 11.7902 12.75C11.7902 11.808 12.5582 11.04 13.5002 11.04C14.4422 11.04 15.2102 11.808 15.2102 12.75C15.2102 13.692 14.4422 14.46 13.5002 14.46Z" fill="#0055FF"/>
<path d="M17.0402 27.75C17.0402 26.2125 15.7892 24.96 14.2502 24.96C12.7112 24.96 11.4602 26.211 11.4602 27.75C11.4602 29.289 12.7112 30.54 14.2502 30.54C14.9297 30.54 15.5432 30.2865 16.0277 29.8815L20.4602 33.2655V46.5H21.5402V32.733L16.7072 29.043C16.9127 28.6545 17.0402 28.2195 17.0402 27.75ZM14.2502 29.46C13.3082 29.46 12.5402 28.6935 12.5402 27.75C12.5402 26.8065 13.3082 26.04 14.2502 26.04C15.1922 26.04 15.9602 26.8065 15.9602 27.75C15.9602 28.6935 15.1922 29.46 14.2502 29.46Z" fill="#0055FF"/>
<path d="M26.7902 8.24996C26.7902 6.71246 25.5377 5.45996 24.0002 5.45996C22.4627 5.45996 21.2102 6.71096 21.2102 8.24996C21.2102 9.60296 22.1792 10.7325 23.4602 10.9845V46.5H24.5417V10.9845C25.8212 10.7325 26.7902 9.60296 26.7902 8.24996ZM24.0002 9.95996C23.0567 9.95996 22.2902 9.19196 22.2902 8.24996C22.2902 7.30796 23.0567 6.53996 24.0002 6.53996C24.9437 6.53996 25.7102 7.30796 25.7102 8.24996C25.7102 9.19196 24.9437 9.95996 24.0002 9.95996Z" fill="#0055FF"/>
<path d="M31.5002 32.46C29.9627 32.46 28.7102 33.7125 28.7102 35.25C28.7102 35.7165 28.8362 36.15 29.0387 36.5355L26.4602 38.7525V46.5H27.5417V39.2475L29.7182 37.3785C30.2027 37.785 30.8192 38.04 31.5002 38.04C33.0377 38.04 34.2902 36.7875 34.2902 35.25C34.2902 33.7125 33.0377 32.46 31.5002 32.46ZM31.5002 36.96C30.5567 36.96 29.7902 36.1935 29.7902 35.25C29.7902 34.3065 30.5567 33.54 31.5002 33.54C32.4437 33.54 33.2102 34.3065 33.2102 35.25C33.2102 36.1935 32.4437 36.96 31.5002 36.96Z" fill="#0055FF"/>
<path d="M32.2502 17.46C30.7127 17.46 29.4602 18.711 29.4602 20.25C29.4602 20.5845 29.5292 20.901 29.6372 21.1995L26.4602 23.742V34.5H27.5417V24.2595L30.2027 22.1295C30.7127 22.6845 31.4387 23.04 32.2502 23.04C33.7877 23.04 35.0402 21.789 35.0402 20.25C35.0402 18.711 33.7877 17.46 32.2502 17.46ZM32.2502 21.96C31.3067 21.96 30.5402 21.192 30.5402 20.25C30.5402 19.308 31.3067 18.54 32.2502 18.54C33.1937 18.54 33.9602 19.308 33.9602 20.25C33.9602 21.192 33.1937 21.96 32.2502 21.96Z" fill="#0055FF"/>
<path d="M23.25 0.959961C13.4866 0.959961 5.53505 8.86646 5.46005 18.612L0.603049 27.5865C0.285049 28.224 0.318049 28.9665 0.691549 29.571C1.06655 30.177 1.71455 30.54 2.42705 30.54H5.46005V34.5C5.46005 39.684 10.9861 43.746 15.9601 44.025V46.5H17.0401V42.96H16.5C11.8935 42.96 6.54005 39.2655 6.54005 34.5V29.46H2.42705C2.08655 29.46 1.78955 29.295 1.61105 29.0055C1.43255 28.716 1.41755 28.3755 1.56005 28.086L6.47405 19.008L6.54005 18.75C6.54005 9.53546 14.0371 2.03996 23.25 2.03996C32.4631 2.03996 39.96 9.53546 39.96 18.75C39.96 22.923 38.4135 26.919 35.6055 30.0015L35.4631 30.156L35.46 46.5H36.5415L36.5445 30.573C39.447 27.3135 41.0415 23.124 41.0415 18.75C41.0401 8.93996 33.0601 0.959961 23.25 0.959961Z" fill="#0055FF"/>
</svg>
