<svg width="29" height="32" viewBox="0 0 29 32" fill="none" xmlns="http://www.w3.org/2000/svg">
<path d="M13.6664 0.397524L10.9059 1.77778L13.6664 3.15803C14.1669 3.40828 14.756 3.40828 15.2565 3.15803L18.017 1.77778L15.2565 0.397524C14.756 0.147277 14.1669 0.147277 13.6664 0.397524Z" fill="url(#paint0_linear)"/>
<path d="M3.79481 5.33333L6.55532 3.95308C7.05582 3.70283 7.64492 3.70283 8.14542 3.95308L14.4615 7.11111L20.7775 3.95308C21.278 3.70283 21.8671 3.70283 22.3676 3.95308L25.1281 5.33333L15.2565 10.2691C14.756 10.5194 14.1669 10.5194 13.6664 10.2691L3.79481 5.33333Z" fill="url(#paint1_linear)"/>
<path d="M14.4615 14.2222L0.239258 7.11111V9.56794C0.239258 10.2413 0.619706 10.8569 1.22199 11.158L12.6837 16.8889V20.4444L0.239258 14.2222L0.239258 16.6791C0.239258 17.3524 0.619706 17.968 1.22199 18.2691L12.6837 24V27.5556L0.239258 21.3333V23.7902C0.239258 24.4635 0.619708 25.0791 1.22199 25.3803L13.6664 31.6025C14.1669 31.8527 14.756 31.8527 15.2565 31.6025L27.701 25.3803C28.3033 25.0791 28.6837 24.4635 28.6837 23.7902V21.3333L16.2393 27.5556V16.8889L27.701 11.158C28.3033 10.8569 28.6837 10.2413 28.6837 9.56794V7.11111L14.4615 14.2222Z" fill="url(#paint2_linear)"/>
<defs>
<linearGradient id="paint0_linear" x1="0.239258" y1="0.209839" x2="30.3936" y2="30.1112" gradientUnits="userSpaceOnUse">
<stop stop-color="#1FFFFF"/>
<stop offset="1" stop-color="#7A00F5"/>
</linearGradient>
<linearGradient id="paint1_linear" x1="0.239258" y1="0.209839" x2="30.3936" y2="30.1112" gradientUnits="userSpaceOnUse">
<stop stop-color="#1FFFFF"/>
<stop offset="1" stop-color="#7A00F5"/>
</linearGradient>
<linearGradient id="paint2_linear" x1="0.239258" y1="0.209839" x2="30.3936" y2="30.1112" gradientUnits="userSpaceOnUse">
<stop stop-color="#1FFFFF"/>
<stop offset="1" stop-color="#7A00F5"/>
</linearGradient>
</defs>
</svg>
