<svg width="22" height="22" viewBox="0 0 22 22" fill="none" xmlns="http://www.w3.org/2000/svg">
<path d="M15.8755 2.37498C15.8755 2.58198 15.7075 2.74998 15.5005 2.74998C15.2935 2.74998 15.1255 2.58198 15.1255 2.37498C15.1255 2.16798 15.2935 1.99998 15.5005 1.99998C15.7075 1.99998 15.8755 2.16798 15.8755 2.37498ZM14.0005 1.99998C13.7935 1.99998 13.6255 2.16798 13.6255 2.37498C13.6255 2.58198 13.7935 2.74998 14.0005 2.74998C14.2075 2.74998 14.3755 2.58198 14.3755 2.37498C14.3755 2.16798 14.2075 1.99998 14.0005 1.99998ZM12.5005 1.99998C12.2935 1.99998 12.1255 2.16798 12.1255 2.37498C12.1255 2.58198 12.2935 2.74998 12.5005 2.74998C12.7075 2.74998 12.8755 2.58198 12.8755 2.37498C12.8755 2.16798 12.7075 1.99998 12.5005 1.99998ZM21.5005 21.02H15.5005C15.3512 21.02 15.2305 20.8992 15.2305 20.75V17.75C15.2305 17.6007 15.3512 17.48 15.5005 17.48H18.2305V15.02H11.2705V17.4792H14.0005C14.1497 17.4792 14.2705 17.6 14.2705 17.7492V20.7492C14.2705 20.8985 14.1497 21.0192 14.0005 21.0192H8.00047C7.85122 21.0192 7.73047 20.8985 7.73047 20.7492V17.7492C7.73047 17.6 7.85122 17.4792 8.00047 17.4792H10.7305V15.02H3.77047V17.4792H6.50047C6.64972 17.4792 6.77047 17.6 6.77047 17.7492V20.7492C6.77047 20.8985 6.64972 21.0192 6.50047 21.0192H0.500469C0.351219 21.0192 0.230469 20.8985 0.230469 20.7492V17.7492C0.230469 17.6 0.351219 17.4792 0.500469 17.4792H3.23047V14.75C3.23047 14.6007 3.35122 14.48 3.50047 14.48H10.7305V11.27H5.00047C4.85122 11.27 4.73047 11.1492 4.73047 11V1.24998C4.73047 1.10073 4.85122 0.97998 5.00047 0.97998H17.0005C17.1497 0.97998 17.2705 1.10073 17.2705 1.24998V11C17.2705 11.1492 17.1497 11.27 17.0005 11.27H11.2705V14.48H18.5005C18.6497 14.48 18.7705 14.6007 18.7705 14.75V17.48H21.5005C21.6497 17.48 21.7705 17.6007 21.7705 17.75V20.75C21.7705 20.8992 21.6497 21.02 21.5005 21.02ZM15.7705 20.48H21.2297V18.02H15.7705V20.48ZM8.27047 20.48H13.7305V18.02H8.27047V20.48ZM0.770469 20.48H6.23047V18.02H0.770469V20.48ZM5.27047 10.73H16.7305V3.76998H5.27047V10.73ZM5.27047 3.22998H16.7305V1.51998H5.27047V3.22998ZM17.7505 19.52H16.2505V18.98H17.7505V19.52ZM10.2505 19.52H8.75047V18.98H10.2505V19.52ZM2.75047 19.52H1.25047V18.98H2.75047V19.52Z" fill="#0055FF"/>
</svg>
