<svg width="22" height="32" viewBox="0 0 22 32" class="fill-current text-brand-1" xmlns="http://www.w3.org/2000/svg">
<path d="M12.5 21.5C12.5 22.204 12.013 22.79 11.36 22.952V25C11.36 25.199 11.199 25.36 11 25.36C10.801 25.36 10.64 25.199 10.64 25V22.952C9.98602 22.79 9.50002 22.204 9.50002 21.5C9.50002 20.672 10.172 20 11 20C11.828 20 12.5 20.672 12.5 21.5ZM21.355 13V31C21.355 31.196 21.196 31.355 21 31.355H1.00002C0.80402 31.355 0.64502 31.196 0.64502 31V13C0.64502 12.804 0.80402 12.645 1.00002 12.645H5.64002V6C5.64002 3.044 8.04402 0.639999 11 0.639999C13.955 0.639999 16.36 3.044 16.36 6V12.645H21C21.196 12.645 21.355 12.804 21.355 13ZM6.35902 12.645H15.639V6C15.639 3.441 13.558 1.36 10.999 1.36C8.44002 1.36 6.36002 3.441 6.36002 6L6.35902 12.645ZM1.35502 13.355V30.644H20.644V13.355H1.35502Z" fill="#6699FF"/>
</svg>
