<svg width="24" height="24" viewBox="0 0 24 24" fill="none" xmlns="http://www.w3.org/2000/svg">
<path d="M23.2505 23.52H18.7505C18.6012 23.52 18.4805 23.3992 18.4805 23.25V18.75C18.4805 18.6007 18.6012 18.48 18.7505 18.48H23.2505C23.3997 18.48 23.5205 18.6007 23.5205 18.75V23.25C23.5205 23.3992 23.3997 23.52 23.2505 23.52ZM19.0205 22.98H22.9797V19.02H19.0205V22.98ZM16.5005 21.27H5.25047C2.62022 21.27 0.480469 19.1302 0.480469 16.5007C0.480469 13.8697 2.62022 11.73 5.25047 11.73H7.50047V12.27H5.25047C2.91797 12.27 1.02047 14.1682 1.02047 16.5007C1.02047 18.8325 2.91797 20.73 5.25047 20.73H16.5005V21.27ZM14.2505 14.52H9.75047C9.60122 14.52 9.48047 14.3992 9.48047 14.25V9.74998C9.48047 9.60073 9.60122 9.47998 9.75047 9.47998H14.2505C14.3997 9.47998 14.5205 9.60073 14.5205 9.74998V14.25C14.5205 14.3992 14.3997 14.52 14.2505 14.52ZM10.0205 13.98H13.9805V10.02H10.0205V13.98ZM18.7505 12.27H16.5005V11.73H18.7505C21.083 11.73 22.9805 9.83248 22.9805 7.49923C22.9805 5.16673 21.0837 3.26923 18.7505 3.26923H7.50047V2.72998H18.7505C21.3807 2.72998 23.5205 4.86973 23.5205 7.49923C23.5205 10.1302 21.3807 12.27 18.7505 12.27ZM5.25047 5.51998H0.750469C0.601219 5.51998 0.480469 5.39923 0.480469 5.24998V0.74998C0.480469 0.60073 0.601219 0.47998 0.750469 0.47998H5.25047C5.39972 0.47998 5.52047 0.60073 5.52047 0.74998V5.24998C5.52047 5.39923 5.39972 5.51998 5.25047 5.51998ZM1.02047 4.97998H4.98047V1.01998H1.02047V4.97998Z" fill="#0055FF"/>
</svg>
