<svg width="24" height="24" viewBox="0 0 24 24" fill="none" xmlns="http://www.w3.org/2000/svg">
<path d="M23.2505 23.52H5.25047C5.10122 23.52 4.98047 23.3992 4.98047 23.25V17.52H0.750469C0.601219 17.52 0.480469 17.3992 0.480469 17.25V5.99998C0.480469 5.85073 0.601219 5.72998 0.750469 5.72998H4.98047V0.74998C4.98047 0.60073 5.10122 0.47998 5.25047 0.47998H18.7505C18.8225 0.47998 18.8915 0.50848 18.9417 0.55873L23.4417 5.05873C23.492 5.10973 23.5205 5.17798 23.5205 5.24998V23.25C23.5205 23.3992 23.3997 23.52 23.2505 23.52ZM5.52047 22.98H22.9805V5.51998H18.7505C18.6012 5.51998 18.4805 5.39923 18.4805 5.24998V1.01998H5.52047V5.72998H12.0005C12.1497 5.72998 12.2705 5.85073 12.2705 5.99998V7.98073H20.2505V8.52073H12.2705V10.9807H20.2505V11.5207H12.2705V13.98H20.2505V14.5207H12.2705V16.98H20.2505V17.5207H5.52047V22.98ZM1.02047 16.98H11.7305V15.1125L9.00047 12.3825L7.69097 13.6912C7.58522 13.797 7.41497 13.797 7.30922 13.6912L3.75047 10.1325L1.02047 12.8625V16.98ZM9.00047 11.7307C9.06947 11.7307 9.13847 11.757 9.19097 11.8095L11.7305 14.3482V6.26998H1.02047V12.0982L3.55997 9.55948C3.66572 9.45373 3.83597 9.45373 3.94172 9.55948L7.50047 13.1182L8.80997 11.8095C8.86247 11.757 8.93147 11.7307 9.00047 11.7307ZM19.0205 4.97998H22.5987L19.0205 1.40173V4.97998ZM17.2505 20.52H8.25047V19.98H17.2505V20.52ZM7.87547 10.02C7.10672 10.02 6.48047 9.39448 6.48047 8.62498C6.48047 7.85548 7.10597 7.22998 7.87547 7.22998C8.64497 7.22998 9.27047 7.85548 9.27047 8.62498C9.27047 9.39448 8.64422 10.02 7.87547 10.02ZM7.87547 7.76998C7.40447 7.76998 7.02047 8.15398 7.02047 8.62498C7.02047 9.09598 7.40447 9.47998 7.87547 9.47998C8.34647 9.47998 8.73047 9.09598 8.73047 8.62498C8.73047 8.15398 8.34647 7.76998 7.87547 7.76998Z" fill="#0055FF"/>
</svg>
