<svg width="40" height="40" viewBox="0 0 40 40" fill="none" xmlns="http://www.w3.org/2000/svg">
<path d="M40 20C40 15.7764 38.6629 11.6612 36.1803 8.2443C33.6978 4.82734 30.1972 2.28403 26.1803 0.978869C22.1635 -0.32629 17.8365 -0.32629 13.8197 0.97887C9.80279 2.28403 6.30222 4.82734 3.81966 8.2443C1.3371 11.6612 -3.69237e-07 15.7764 0 20C3.69238e-07 24.2236 1.3371 28.3388 3.81966 31.7557C6.30222 35.1727 9.80279 37.716 13.8197 39.0211C17.8365 40.3263 22.1635 40.3263 26.1803 39.0211L24.6353 34.2658C21.6226 35.2447 18.3774 35.2447 15.3647 34.2659C12.3521 33.287 9.72667 31.3795 7.86475 28.8168C6.00282 26.2541 5 23.1677 5 20C5 16.8323 6.00282 13.7459 7.86474 11.1832C9.72667 8.62051 12.3521 6.71302 15.3647 5.73415C18.3774 4.75528 21.6226 4.75528 24.6353 5.73415C27.6479 6.71302 30.2733 8.62051 32.1353 11.1832C33.9972 13.7459 35 16.8323 35 20H40Z" fill="url(#paint0_linear)"/>
<defs>
<linearGradient id="paint0_linear" x1="0" y1="0" x2="38.0192" y2="41.8567" gradientUnits="userSpaceOnUse">
<stop stop-color="#1FFFFF"/>
<stop offset="1" stop-color="#7A00F5"/>
</linearGradient>
</defs>
</svg>
