<svg width="22" height="21" viewBox="0 0 22 21" fill="none" xmlns="http://www.w3.org/2000/svg">
<path d="M11.25 20.5C10.1343 20.5 9.20693 19.8243 9.04228 18.9448H0.840669V18.3849H9.04228C9.1899 17.5964 9.94978 16.9728 10.9093 16.8507V15.8344H0.840669C0.652355 15.8344 0.5 15.7092 0.5 15.5544V11.6664C0.5 11.5117 0.652355 11.3865 0.840669 11.3865H21.6593C21.8476 11.3865 22 11.5117 22 11.6664V15.5544C22 15.7092 21.8476 15.8344 21.6593 15.8344H11.5907V16.8507C12.5502 16.972 13.3101 17.5964 13.4577 18.3849H21.6593V18.9456H13.4577C13.2931 19.8243 12.3657 20.5 11.25 20.5ZM11.25 17.3896C10.3945 17.3896 9.69806 17.9611 9.69806 18.6649C9.69806 19.3686 10.3945 19.9401 11.25 19.9401C12.1055 19.9401 12.8019 19.3686 12.8019 18.6649C12.8019 17.9611 12.1055 17.3896 11.25 17.3896ZM1.18134 15.2745H21.3187V11.9463H1.18134V15.2745ZM19.7667 13.5016H14.0889V12.9417H19.7667V13.5016ZM7.46479 13.5016H6.51849V12.9417H7.46479V13.5016ZM5.57218 13.5016H4.62588V12.9417H5.57218V13.5016ZM3.67958 13.5016H2.73327V12.9417H3.67958V13.5016ZM21.6593 10.3911H0.840669C0.652355 10.3911 0.5 10.2659 0.5 10.1112V6.22317C0.5 6.06843 0.652355 5.94323 0.840669 5.94323H21.6593C21.8476 5.94323 22 6.06843 22 6.22317V10.1112C22 10.2659 21.8476 10.3911 21.6593 10.3911ZM1.18134 9.83126H21.3187V6.50311H1.18134V9.83126ZM19.7667 8.05832H14.0889V7.49844H19.7667V8.05832ZM7.46479 8.05832H6.51849V7.49844H7.46479V8.05832ZM5.57218 8.05832H4.62588V7.49844H5.57218V8.05832ZM3.67958 8.05832H2.73327V7.49844H3.67958V8.05832ZM21.6593 4.9479H0.840669C0.652355 4.9479 0.5 4.82271 0.5 4.66796V0.779938C0.5 0.625194 0.652355 0.5 0.840669 0.5H21.6593C21.8476 0.5 22 0.625194 22 0.779938V4.66796C22 4.82271 21.8476 4.9479 21.6593 4.9479ZM1.18134 4.38802H21.3187V1.05988H1.18134V4.38802ZM19.7667 2.61509H14.0889V2.05521H19.7667V2.61509ZM7.46479 2.61509H6.51849V2.05521H7.46479V2.61509ZM5.57218 2.61509H4.62588V2.05521H5.57218V2.61509ZM3.67958 2.61509H2.73327V2.05521H3.67958V2.61509Z" fill="#0055FF"/>
</svg>
